<?xml version="1.0" standalone="no"?>
<!DOCTYPE svg PUBLIC "-//W3C//DTD SVG 1.1//EN" "http://www.w3.org/Graphics/SVG/1.1/DTD/svg11.dtd">
<svg xmlns="http://www.w3.org/2000/svg" xmlns:xlink="http://www.w3.org/1999/xlink" zoomAndPan="magnify" preserveAspectRatio="xMidYMid meet" version="1.0" viewBox="68.73 125.58 252.84 121.67" width="252.83999633789062" height="121.66999816894531"><defs><g/><clipPath id="313982741c"><path d="M 79.335938 125.582031 L 193.808594 125.582031 L 193.808594 231.292969 L 79.335938 231.292969 Z M 79.335938 125.582031 " clip-rule="nonzero"/></clipPath></defs><g clip-path="url(#313982741c)"><path fill="#bc1823" d="M 79.335938 125.582031 L 193.71875 125.582031 L 193.71875 231.292969 L 79.335938 231.292969 Z M 79.335938 125.582031 " fill-opacity="1" fill-rule="nonzero"/></g><g fill="#bc1823" fill-opacity="1"><g transform="translate(89.389475, 214.216582)"><g><path d="M 39.5 0 L 28.421875 0 L 26.53125 -12.671875 L 13.0625 -12.671875 L 11.171875 0 L 1.09375 0 L 12.265625 -69.828125 L 28.328125 -69.828125 Z M 14.46875 -22.140625 L 25.03125 -22.140625 L 19.75 -57.453125 Z M 14.46875 -22.140625 "/></g></g></g><g fill="#bc1823" fill-opacity="1"><g transform="translate(125.000073, 214.216582)"><g><path d="M 27.234375 -20.25 L 34.71875 -69.828125 L 49.96875 -69.828125 L 49.96875 0 L 39.59375 0 L 39.59375 -50.078125 L 32.015625 0 L 21.640625 0 L 13.46875 -49.375 L 13.46875 0 L 3.890625 0 L 3.890625 -69.828125 L 19.15625 -69.828125 Z M 27.234375 -20.25 "/></g></g></g><g fill="#bc1823" fill-opacity="1"><g transform="translate(173.987125, 214.216582)"><g/></g></g><g fill="#bc1823" fill-opacity="1"><g transform="translate(184.460755, 214.216582)"><g/></g></g><g fill="#bc1823" fill-opacity="1"><g transform="translate(194.940249, 214.216582)"><g><path d="M 39.5 0 L 28.421875 0 L 26.53125 -12.671875 L 13.0625 -12.671875 L 11.171875 0 L 1.09375 0 L 12.265625 -69.828125 L 28.328125 -69.828125 Z M 14.46875 -22.140625 L 25.03125 -22.140625 L 19.75 -57.453125 Z M 14.46875 -22.140625 "/></g></g></g><g fill="#bc1823" fill-opacity="1"><g transform="translate(230.550847, 214.216582)"><g><path d="M 26.9375 0 C 26.800781 -0.46875 26.664062 -0.898438 26.53125 -1.296875 C 26.394531 -1.691406 26.273438 -2.1875 26.171875 -2.78125 C 26.078125 -3.382812 26.015625 -4.148438 25.984375 -5.078125 C 25.953125 -6.015625 25.9375 -7.179688 25.9375 -8.578125 L 25.9375 -19.546875 C 25.9375 -22.804688 25.367188 -25.097656 24.234375 -26.421875 C 23.109375 -27.753906 21.28125 -28.421875 18.75 -28.421875 L 14.96875 -28.421875 L 14.96875 0 L 3.984375 0 L 3.984375 -69.828125 L 20.546875 -69.828125 C 26.265625 -69.828125 30.40625 -68.492188 32.96875 -65.828125 C 35.53125 -63.171875 36.8125 -59.148438 36.8125 -53.765625 L 36.8125 -48.28125 C 36.8125 -41.09375 34.414062 -36.367188 29.625 -34.109375 C 32.414062 -32.984375 34.328125 -31.140625 35.359375 -28.578125 C 36.390625 -26.015625 36.90625 -22.90625 36.90625 -19.25 L 36.90625 -8.484375 C 36.90625 -6.753906 36.972656 -5.238281 37.109375 -3.9375 C 37.242188 -2.644531 37.578125 -1.332031 38.109375 0 Z M 14.96875 -59.84375 L 14.96875 -38.40625 L 19.25 -38.40625 C 21.3125 -38.40625 22.921875 -38.9375 24.078125 -40 C 25.242188 -41.0625 25.828125 -42.988281 25.828125 -45.78125 L 25.828125 -52.671875 C 25.828125 -55.191406 25.378906 -57.015625 24.484375 -58.140625 C 23.585938 -59.273438 22.175781 -59.84375 20.25 -59.84375 Z M 14.96875 -59.84375 "/></g></g></g><g fill="#bc1823" fill-opacity="1"><g transform="translate(265.6627, 214.216582)"><g><path d="M 39.5 0 L 28.421875 0 L 26.53125 -12.671875 L 13.0625 -12.671875 L 11.171875 0 L 1.09375 0 L 12.265625 -69.828125 L 28.328125 -69.828125 Z M 14.46875 -22.140625 L 25.03125 -22.140625 L 19.75 -57.453125 Z M 14.46875 -22.140625 "/></g></g></g><g fill="#ffffff" fill-opacity="1"><g transform="translate(93.415554, 214.598173)"><g><path d="M 39.5 0 L 28.421875 0 L 26.53125 -12.671875 L 13.0625 -12.671875 L 11.171875 0 L 1.09375 0 L 12.265625 -69.828125 L 28.328125 -69.828125 Z M 14.46875 -22.140625 L 25.03125 -22.140625 L 19.75 -57.453125 Z M 14.46875 -22.140625 "/></g></g></g><g fill="#ffffff" fill-opacity="1"><g transform="translate(129.023398, 214.598173)"><g><path d="M 27.234375 -20.25 L 34.71875 -69.828125 L 49.96875 -69.828125 L 49.96875 0 L 39.59375 0 L 39.59375 -50.078125 L 32.015625 0 L 21.640625 0 L 13.46875 -49.375 L 13.46875 0 L 3.890625 0 L 3.890625 -69.828125 L 19.15625 -69.828125 Z M 27.234375 -20.25 "/></g></g></g><g fill="#000000" fill-opacity="1"><g transform="translate(68.339585, 247.093026)"><g><path d="M 8.515625 -7.78125 L 7.140625 0 L 5.578125 0 L 6.140625 -3.1875 L 2.515625 -3.1875 L 1.953125 0 L 0.390625 0 L 1.765625 -7.78125 L 3.328125 -7.78125 L 2.734375 -4.4375 L 6.359375 -4.4375 L 6.953125 -7.78125 Z M 8.515625 -7.78125 "/></g></g></g><g fill="#000000" fill-opacity="1"><g transform="translate(83.584602, 247.093026)"><g><path d="M 5.15625 -2.34375 L 2.5 -2.34375 L 1.328125 0 L -0.34375 0 L 3.78125 -7.78125 L 5.84375 -7.78125 L 7.1875 0 L 5.5 0 Z M 4.96875 -3.578125 L 4.546875 -6.40625 L 3.125 -3.578125 Z M 4.96875 -3.578125 "/></g></g></g><g fill="#000000" fill-opacity="1"><g transform="translate(98.074129, 247.093026)"><g><path d="M 6.234375 -1.296875 L 6 0 L 0.390625 0 L 1.765625 -7.78125 L 3.328125 -7.78125 L 2.171875 -1.296875 Z M 6.234375 -1.296875 "/></g></g></g><g fill="#000000" fill-opacity="1"><g transform="translate(111.650306, 247.093026)"><g><path d="M 6.234375 -1.296875 L 6 0 L 0.390625 0 L 1.765625 -7.78125 L 3.328125 -7.78125 L 2.171875 -1.296875 Z M 6.234375 -1.296875 "/></g></g></g><g fill="#000000" fill-opacity="1"><g transform="translate(125.226483, 247.093026)"><g/></g></g><g fill="#000000" fill-opacity="1"><g transform="translate(133.841265, 247.093026)"><g><path d="M 5.171875 -7.9375 C 5.910156 -7.9375 6.535156 -7.785156 7.046875 -7.484375 C 7.566406 -7.191406 7.957031 -6.789062 8.21875 -6.28125 C 8.488281 -5.769531 8.625 -5.195312 8.625 -4.5625 C 8.625 -3.90625 8.519531 -3.285156 8.3125 -2.703125 C 8.113281 -2.128906 7.816406 -1.628906 7.421875 -1.203125 C 7.035156 -0.773438 6.566406 -0.441406 6.015625 -0.203125 C 5.472656 0.0351562 4.851562 0.15625 4.15625 0.15625 C 3.414062 0.15625 2.785156 0.00390625 2.265625 -0.296875 C 1.753906 -0.597656 1.363281 -1.003906 1.09375 -1.515625 C 0.832031 -2.023438 0.703125 -2.59375 0.703125 -3.21875 C 0.703125 -3.882812 0.800781 -4.503906 1 -5.078125 C 1.207031 -5.648438 1.503906 -6.148438 1.890625 -6.578125 C 2.285156 -7.003906 2.753906 -7.335938 3.296875 -7.578125 C 3.847656 -7.816406 4.472656 -7.9375 5.171875 -7.9375 Z M 4.28125 -1 C 4.738281 -1 5.132812 -1.101562 5.46875 -1.3125 C 5.8125 -1.53125 6.09375 -1.816406 6.3125 -2.171875 C 6.53125 -2.523438 6.691406 -2.90625 6.796875 -3.3125 C 6.910156 -3.726562 6.96875 -4.132812 6.96875 -4.53125 C 6.96875 -5.207031 6.800781 -5.75 6.46875 -6.15625 C 6.132812 -6.570312 5.660156 -6.78125 5.046875 -6.78125 C 4.585938 -6.78125 4.1875 -6.671875 3.84375 -6.453125 C 3.507812 -6.242188 3.234375 -5.960938 3.015625 -5.609375 C 2.796875 -5.265625 2.628906 -4.882812 2.515625 -4.46875 C 2.410156 -4.050781 2.359375 -3.644531 2.359375 -3.25 C 2.359375 -2.582031 2.523438 -2.039062 2.859375 -1.625 C 3.191406 -1.207031 3.664062 -1 4.28125 -1 Z M 4.28125 -1 "/></g></g></g><g fill="#000000" fill-opacity="1"><g transform="translate(149.469666, 247.093026)"><g><path d="M 3.109375 -6.5625 L 2.75 -4.515625 L 6.3125 -4.515625 L 6.09375 -3.28125 L 2.53125 -3.28125 L 1.953125 0 L 0.390625 0 L 1.765625 -7.78125 L 7.265625 -7.78125 L 7.046875 -6.5625 Z M 3.109375 -6.5625 "/></g></g></g><g fill="#000000" fill-opacity="1"><g transform="translate(162.955638, 247.093026)"><g/></g></g><g fill="#000000" fill-opacity="1"><g transform="translate(171.570414, 247.093026)"><g><path d="M 3.109375 -6.5625 L 2.75 -4.515625 L 6.3125 -4.515625 L 6.09375 -3.28125 L 2.53125 -3.28125 L 1.953125 0 L 0.390625 0 L 1.765625 -7.78125 L 7.265625 -7.78125 L 7.046875 -6.5625 Z M 3.109375 -6.5625 "/></g></g></g><g fill="#000000" fill-opacity="1"><g transform="translate(185.056385, 247.093026)"><g><path d="M 5.15625 -2.34375 L 2.5 -2.34375 L 1.328125 0 L -0.34375 0 L 3.78125 -7.78125 L 5.84375 -7.78125 L 7.1875 0 L 5.5 0 Z M 4.96875 -3.578125 L 4.546875 -6.40625 L 3.125 -3.578125 Z M 4.96875 -3.578125 "/></g></g></g><g fill="#000000" fill-opacity="1"><g transform="translate(199.545918, 247.093026)"><g><path d="M 10.171875 -7.78125 L 8.78125 0 L 7.234375 0 L 8.359375 -6.265625 L 5.515625 0 L 3.671875 0 L 3.046875 -6.28125 L 1.953125 0 L 0.390625 0 L 1.765625 -7.78125 L 4.3125 -7.78125 L 4.890625 -1.640625 L 7.578125 -7.78125 Z M 10.171875 -7.78125 "/></g></g></g><g fill="#000000" fill-opacity="1"><g transform="translate(216.437208, 247.093026)"><g><path d="M 3.109375 -6.5625 L 2.75 -4.515625 L 6.421875 -4.515625 L 6.203125 -3.28125 L 2.53125 -3.28125 L 2.171875 -1.234375 L 6.234375 -1.234375 L 6 0 L 0.390625 0 L 1.765625 -7.78125 L 7.265625 -7.78125 L 7.046875 -6.5625 Z M 3.109375 -6.5625 "/></g></g></g><g fill="#000000" fill-opacity="1"><g transform="translate(230.159971, 247.093026)"><g/></g></g><g fill="#000000" fill-opacity="1"><g transform="translate(238.774748, 247.093026)"><g><path d="M 5.15625 -2.34375 L 2.5 -2.34375 L 1.328125 0 L -0.34375 0 L 3.78125 -7.78125 L 5.84375 -7.78125 L 7.1875 0 L 5.5 0 Z M 4.96875 -3.578125 L 4.546875 -6.40625 L 3.125 -3.578125 Z M 4.96875 -3.578125 "/></g></g></g><g fill="#000000" fill-opacity="1"><g transform="translate(253.264281, 247.093026)"><g><path d="M 12.03125 -7.78125 L 8.609375 0 L 6.546875 0 L 6.3125 -6.265625 L 3.828125 0 L 1.765625 0 L 1.140625 -7.78125 L 2.78125 -7.78125 L 3.046875 -1.359375 L 5.453125 -7.671875 L 7.671875 -7.671875 L 7.8125 -1.296875 L 10.3125 -7.78125 Z M 12.03125 -7.78125 "/></g></g></g><g fill="#000000" fill-opacity="1"><g transform="translate(271.226793, 247.093026)"><g><path d="M 5.15625 -2.34375 L 2.5 -2.34375 L 1.328125 0 L -0.34375 0 L 3.78125 -7.78125 L 5.84375 -7.78125 L 7.1875 0 L 5.5 0 Z M 4.96875 -3.578125 L 4.546875 -6.40625 L 3.125 -3.578125 Z M 4.96875 -3.578125 "/></g></g></g><g fill="#000000" fill-opacity="1"><g transform="translate(285.716326, 247.093026)"><g><path d="M 7.453125 -6.03125 C 7.453125 -5.40625 7.269531 -4.898438 6.90625 -4.515625 C 6.539062 -4.140625 6.066406 -3.878906 5.484375 -3.734375 C 5.816406 -3.617188 6.046875 -3.382812 6.171875 -3.03125 C 6.296875 -2.6875 6.359375 -2.140625 6.359375 -1.390625 C 6.359375 -1.085938 6.375 -0.820312 6.40625 -0.59375 C 6.445312 -0.363281 6.507812 -0.164062 6.59375 0 L 4.90625 0 C 4.882812 -0.125 4.863281 -0.257812 4.84375 -0.40625 C 4.832031 -0.5625 4.820312 -0.753906 4.8125 -0.984375 C 4.8125 -1.222656 4.8125 -1.53125 4.8125 -1.90625 C 4.8125 -2.269531 4.75 -2.554688 4.625 -2.765625 C 4.5 -2.984375 4.296875 -3.101562 4.015625 -3.125 C 3.921875 -3.132812 3.820312 -3.140625 3.71875 -3.140625 C 3.625 -3.140625 3.523438 -3.140625 3.421875 -3.140625 L 2.5 -3.140625 L 1.953125 0 L 0.390625 0 L 1.765625 -7.78125 L 4.609375 -7.78125 C 4.835938 -7.78125 5.035156 -7.773438 5.203125 -7.765625 C 5.367188 -7.765625 5.546875 -7.753906 5.734375 -7.734375 C 6.222656 -7.679688 6.628906 -7.519531 6.953125 -7.25 C 7.285156 -6.976562 7.453125 -6.570312 7.453125 -6.03125 Z M 4.4375 -4.3125 C 4.789062 -4.34375 5.097656 -4.460938 5.359375 -4.671875 C 5.617188 -4.878906 5.75 -5.207031 5.75 -5.65625 C 5.75 -5.945312 5.671875 -6.15625 5.515625 -6.28125 C 5.359375 -6.414062 5.148438 -6.5 4.890625 -6.53125 C 4.710938 -6.550781 4.5 -6.5625 4.25 -6.5625 L 3.109375 -6.5625 L 2.703125 -4.296875 L 3.796875 -4.296875 C 3.929688 -4.296875 4.046875 -4.296875 4.140625 -4.296875 C 4.234375 -4.296875 4.332031 -4.300781 4.4375 -4.3125 Z M 4.4375 -4.3125 "/></g></g></g><g fill="#000000" fill-opacity="1"><g transform="translate(299.811205, 247.093026)"><g><path d="M 5.265625 -7.734375 C 5.785156 -7.679688 6.253906 -7.53125 6.671875 -7.28125 C 7.085938 -7.03125 7.414062 -6.671875 7.65625 -6.203125 C 7.90625 -5.734375 8.03125 -5.148438 8.03125 -4.453125 C 8.03125 -3.910156 7.945312 -3.390625 7.78125 -2.890625 C 7.613281 -2.390625 7.359375 -1.9375 7.015625 -1.53125 C 6.679688 -1.125 6.257812 -0.789062 5.75 -0.53125 C 5.238281 -0.269531 4.640625 -0.101562 3.953125 -0.03125 C 3.753906 -0.0195312 3.585938 -0.0078125 3.453125 0 C 3.316406 0 3.148438 0 2.953125 0 L 0.390625 0 L 1.765625 -7.78125 L 4.234375 -7.78125 C 4.429688 -7.78125 4.601562 -7.773438 4.75 -7.765625 C 4.90625 -7.765625 5.078125 -7.753906 5.265625 -7.734375 Z M 3.875 -1.25 C 4.457031 -1.320312 4.929688 -1.507812 5.296875 -1.8125 C 5.660156 -2.125 5.925781 -2.503906 6.09375 -2.953125 C 6.269531 -3.410156 6.359375 -3.894531 6.359375 -4.40625 C 6.359375 -5.101562 6.207031 -5.617188 5.90625 -5.953125 C 5.613281 -6.285156 5.234375 -6.476562 4.765625 -6.53125 C 4.648438 -6.539062 4.53125 -6.546875 4.40625 -6.546875 C 4.289062 -6.554688 4.15625 -6.5625 4 -6.5625 L 3.109375 -6.5625 L 2.171875 -1.234375 L 3.078125 -1.234375 C 3.234375 -1.234375 3.375 -1.234375 3.5 -1.234375 C 3.625 -1.234375 3.75 -1.238281 3.875 -1.25 Z M 3.875 -1.25 "/></g></g></g><g fill="#000000" fill-opacity="1"><g transform="translate(314.841984, 247.093026)"><g><path d="M 4.1875 -7.9375 C 4.800781 -7.9375 5.300781 -7.828125 5.6875 -7.609375 C 6.070312 -7.398438 6.347656 -7.109375 6.515625 -6.734375 C 6.679688 -6.367188 6.75 -5.957031 6.71875 -5.5 L 5.140625 -5.5 C 5.160156 -5.894531 5.070312 -6.207031 4.875 -6.4375 C 4.6875 -6.664062 4.390625 -6.78125 3.984375 -6.78125 C 3.628906 -6.78125 3.332031 -6.679688 3.09375 -6.484375 C 2.851562 -6.296875 2.734375 -6.023438 2.734375 -5.671875 C 2.734375 -5.410156 2.84375 -5.191406 3.0625 -5.015625 C 3.289062 -4.847656 3.671875 -4.703125 4.203125 -4.578125 C 4.910156 -4.410156 5.4375 -4.148438 5.78125 -3.796875 C 6.132812 -3.441406 6.3125 -3 6.3125 -2.46875 C 6.3125 -1.914062 6.15625 -1.441406 5.84375 -1.046875 C 5.53125 -0.648438 5.125 -0.347656 4.625 -0.140625 C 4.125 0.0546875 3.570312 0.15625 2.96875 0.15625 C 2.382812 0.15625 1.875 0.0664062 1.4375 -0.109375 C 1.007812 -0.296875 0.679688 -0.570312 0.453125 -0.9375 C 0.222656 -1.300781 0.132812 -1.753906 0.1875 -2.296875 L 1.765625 -2.296875 C 1.773438 -1.867188 1.910156 -1.546875 2.171875 -1.328125 C 2.429688 -1.109375 2.757812 -1 3.15625 -1 C 3.5625 -1 3.90625 -1.101562 4.1875 -1.3125 C 4.46875 -1.519531 4.609375 -1.804688 4.609375 -2.171875 C 4.609375 -2.441406 4.503906 -2.671875 4.296875 -2.859375 C 4.085938 -3.046875 3.742188 -3.195312 3.265625 -3.3125 C 2.585938 -3.488281 2.050781 -3.722656 1.65625 -4.015625 C 1.257812 -4.316406 1.0625 -4.742188 1.0625 -5.296875 C 1.0625 -5.859375 1.207031 -6.335938 1.5 -6.734375 C 1.789062 -7.128906 2.171875 -7.425781 2.640625 -7.625 C 3.117188 -7.832031 3.632812 -7.9375 4.1875 -7.9375 Z M 4.1875 -7.9375 "/></g></g></g></svg>